<svg xmlns="http://www.w3.org/2000/svg" version="1.1" xmlns:xlink="http://www.w3.org/1999/xlink" xmlns:svgjs="http://svgjs.dev/svgjs" viewBox="0 0 1422 800" opacity="1"><defs><linearGradient x1="50%" y1="0%" x2="50%" y2="100%" id="ssscribble-grad"><stop stop-color="hsl(206, 75%, 49%)" stop-opacity="1" offset="0%"></stop><stop stop-color="hsl(331, 90%, 56%)" stop-opacity="1" offset="100%"></stop></linearGradient></defs><g fill="none" stroke-width="1.75" stroke="url(#ssscribble-grad)" stroke-linecap="round"><path d="M1607.5 470.12C1476.51 494.61 1330.45 528.34 1208.62 570.48 1141.53 612.16 1144.36 661.12 1212.33 715.3 1328.11 766.33 1458.44 818.49 1570.56 867.22 1641.06 905.99 1651.44 933.63 1601.6 944.26 1502.23 937.34 1374.43 908.41 1243.33 856.75 1129.45 793.61 1052.47 719.08 1020.49 644.59 1034.79 590.04 1087.06 562.63 1163.26 576.16 1253.12 635.94 1336.91 739.72 1402.26 876.15 1444.77 1017.8 1455.99 1142.05 1437.2 1219.38 1391.47 1229.93 1324.41 1169.84 1244.16 1052.29 1153.49 916.51 1062.6 800.4 977.07 747.03 895.6 782.45 825.3 901.85 766.74 1072.88 716.54 1237 676.96 1339.06 645.75 1338.34 620.77 1235.95 600.66 1069.67 582.9 908.13 568.01 824.96 552.62 857.46 535.11 998.03 518.29 1186.64 497.95 1340.51 473.46 1386.68 448.97 1302.46 420.91 1128.51 390.03 946.23 359.84 835.13 328.22 841.52 296.92 955.99 268.49 1128.74 243.24 1281.87 223.79 1353.26 210.56 1317.16 206.64 1187.23 214.4 1013.81 230.52 854.54 259.43 762.92 300.7 760.95 346.01 843.31 397.86 974.43 450.79 1108.04 493.29 1207.61 523.89 1240.08 534.58 1200.34 518.33 1098.48 473.48 960.71 398.87 818.19 301.42 692.87 187.07 608.71 68.3 572.28 -36.82 582.76 -116.35 629.76 -156.15 697.3 -149.67 777.84 -96.43 851.1 -4.39 907.25 104.85 947.05 212.7 961.84 294.11 954.33 326.01 928.6 299.67 887.79 215.36 838.35 89.41 780.07 -52.6 720.99 -177.84 665.27 -255.25 607.32 -265.29 556.13 -203.04 513.3 -86.06 470.26 57.51 436.19 188.5 411.7 267.72 387.2 274.87 372.87 211.04 368.2 93.09 363.33 -44.08 367.51 -164.13 379.27 -239.75 388.8 -250.31 402.51 -195.48 416.37 -88.29 421.38 46.52 418.7 179.87 401.99 287.58 367.07 349.38 310.9 358.61 230.9 316.8 134.54 237.97 22.25 141.23 -96.03 41.4 -201.32 -39.05 -284.79 -87.71 -330.32 -100.36 -328.95 -73.58 -278.44 -13.6 -185.22 73.23 -74.8 174.65 32.4 279.18 105.35 381.79 116.2 471 56.48 542.5 -68.56 596.59 -227.67 630.85 -382.54 648.25 -486.75 650.2 -506.65 641.65 -435.01 627.38 -293.7 605.8 -138.23 584.72 -24.23 567.16 -1.92 548.1 -87.1 535.36 -251.91 529.91 -434.12 524.86 -558.06 527.36 -571.69 537.38 -465.48 547.68 -288.06 565.07 -116.57 589.56 -32.31 614.05 -78.43 645.07 -229.79 682.46 -413.56 720.14 -549.32 764.65 -574.65 815.89 -482.06 867.52 -311.08 925.63 -133.1 989.13 -16.86 1051.12 -2.29 1115.7 -88.39 1179.72 -234.55 1236.43 -387.64 1286.37 -487.1 1324.63 -500.69 1347.44 -425.49 1352.22 -285.65 1335.88 -124.37 1302.12 18.67 1249.37 106.05 1181.79 124.42 1112.31 76.01 1044.52 -17.66 989.78 -127.21 961.9 -231.55 965.68 -301.7 1007.26 -326.45 1084.83 -304.94 1192.56 -241.08 1317.89 -148.78 1440.13 -36.55 1542.69 77.02 1606.35 180.37 1618.97 272.24 1577.12 342.55 1487.36 391.92 1371.97 423.74 1253.09 439.59 1159.72 445.25 1118.71 440.95 1140.97 434.17 1226.04 429.32 1355.54 421.33 1499.92 419.37 1622.72 425.4 1691.39 430.95 1686.72 445.63 1607.5 470.12Q1607.5 470.12 1607.5 470.12" opacity="0.28"></path><path d="M1541.87 641.13C1423.7 663.4 1290.41 680.75 1171.97 692.66 1092.94 703.67 1068.86 707.59 1101.59 703.09 1183.72 696 1294.3 678.89 1409.15 651.38 1508.42 621.96 1570.11 584.19 1584.27 541.26 1550.08 504.27 1473.32 471.17 1368.23 449.42 1249.09 448.3 1134.98 470.11 1040.46 520.29 974.18 596.59 942.87 697.98 945.31 816.66 979.01 934.45 1034.35 1040.74 1101.01 1117.34 1174.26 1149.19 1240.73 1130.06 1293.64 1059.95 1332.56 956.82 1350.89 838.7 1349.29 735.07 1330.15 678.49 1294.89 685.22 1247.97 762.39 1190.39 894.14 1127.9 1051.29 1064.42 1191.88 997.72 1273.94 934.35 1273.47 876.1 1187.41 818.34 1045.84 766.84 892.7 721.8 782.68 677.8 759.67 639.72 834.18 607.24 984.23 575.16 1155.64 547.98 1285.71 525.72 1322.43 503.46 1250.61 486.63 1099.3 475.35 928.02 464.45 798.99 459.81 758.05 461.82 814.69 464.87 947.16 475.13 1103.87 492.49 1229.93 510.35 1286.71 534.18 1254.3 562.29 1145.95 587.19 992.68 612.06 839.88 633.08 727.06 643.44 678.24 643.21 700.89 628.04 780.58 595.33 896.61 543.86 1013.76 473.08 1104.13 388.32 1152.47 291.27 1146.37 188.84 1090.86 93.01 995.13 9.88 877.86 -50.11 757.76 -78.84 644.99 -72.32 555.97 -29.22 495.83 42.11 464.48 134.65 460.77 233.92 477.56 319.16 512.73 377.77 555.2 395.64 597.73 365.17 643.15 288.98 680.45 177.15 707.44 49.73 730.71 -71.47 742.93 -162.19 745.28 -203.51 744.39 -185.99 736 -111.36 721.81 2.67 706.62 133.7 687.54 251.87 665.27 327.34 643.01 344.09 618.09 300.85 589.92 207.1 560.74 86.78 526.41 -32.98 485.32 -129.81 440.98 -181.43 387.52 -179.17 323.86 -124.9 256.48 -29.02 179.64 89.9 95.64 213.46 14.52 320.42 -65.57 396.11 -137.3 432.5 -190.65 427.41 -222.45 386.85 -225.42 317.31 -199.61 234.3 -143.74 151.45 -62.82 75.93 25.4 21.42 112.11 -7.02 178.67 -9.33 205.02 15.71 183.35 63.34 108.73 130.23 -7.9 208.78 -149.85 292.13 -289.06 379.15 -391.95 461.35 -436.19 535.36 -407.25 603.24 -314.3 660.07 -179.66 706.32 -42.7 744.84 49.33 774.71 67.28 798.14 -2.03 816.38 -140.63 831.31 -307.97 845.05 -449.05 856.49 -514.32 869.08 -479.97 884.16 -355.37 898.69 -188.5 916.81 -39.42 939.07 32.42 961.34 -4.24 987.21 -132.03 1016.05 -299.03 1044.34 -444.71 1074.48 -512.7 1105.03 -481.13 1133.27 -362.54 1159.59 -198.76 1181.75 -44.62 1198.72 54.01 1208.39 69.01 1208.46 3.28 1200.8 -120.97 1181.6 -259.98 1150.28 -371.89 1112.83 -429.21 1066.13 -414.38 1013.42 -334.63 964.38 -207.82 918.96 -64.9 883.92 64.51 868.14 160.91 873.65 207.84 905.14 205.17 962.75 157.76 1045.05 82.04 1146.85 -3.89 1255.99 -90.72 1363.79 -158.97 1456.52 -200.95 1520.27 -216.82 1546.95 -203.14 1530.44 -165.47 1474.61 -107.16 1385.8 -36.44 1278.56 39.13 1175.95 120.64 1094.55 197.96 1052.84 267.77 1063.13 335.67 1125.35 394.02 1230.76 443.11 1359.12 489.59 1486 528.4 1584.16 560.75 1631.83 592.21 1617.36 618.86 1541.92 641.12Q1541.87 641.13 1541.87 641.13" opacity="0.24"></path><path d="M1477.42 200.02C1372.27 220.05 1252.45 234.3 1140.07 243.46 1054 253.32 1008.48 259.53 1008.91 263.93 1054.4 271.41 1134.03 280.33 1232.5 293.71 1336.03 314.35 1425.12 343.91 1486.66 385.46 1514.31 437.56 1502.89 503.63 1455.78 583.47 1379.02 669.36 1283.21 762.36 1180.28 855.88 1078.71 937.82 990.36 1004.42 921.97 1046.03 876.4 1056.32 856.02 1032.31 858.45 973.98 882.18 892.9 920.59 796.61 967.45 701.72 1021.73 631.02 1074.27 596.6 1120.74 611.55 1162.85 678.17 1193.94 788.82 1213.39 925.57 1224.27 1111.27 1186.51 1154.83 1147.81 986.02 1116.64 849.92 1084.12 740.17 1052.06 690.95 1018.42 720.72 986.94 823.43 958.74 972.21 930.19 1122.59 905.63 1229.68 885.59 1257.92 865.55 1197.68 850.51 1068.95 840.03 913.58 829.21 777.58 822.22 701.08 818.07 702.75 812.34 780.06 807.74 906.39 802.56 1043.7 793.38 1157.46 780.85 1214.66 762.72 1203.09 737.53 1126.85 703.86 1005.03 659.99 866.54 607.63 737.58 544.61 645.16 471.61 602.63 394.25 613.49 311.9 669.8 228.95 755.06 153.41 855.67 87.48 948.28 37.5 1017.93 8.8 1058.73 4.17 1062.58 26.08 1032.44 70.81 972.53 136.85 891.95 217.56 801.09 299.63 703.49 376.02 611.35 434.91 530.18 464.14 458.51 459.23 402.49 416.9 361.07 340.66 331.26 238.54 312.61 123.69 301.49 13.92 297.43 -75.27 296.06 -128.49 294.34 -136.66 295.34 -97.03 292.96 -14.93 285.51 93.48 278.63 211.27 265.5 316.42 245.46 386.83 225.43 410.42 198.96 384.86 166.82 314.73 135.23 215.45 99.16 105.84 60.37 2.29 24.3 -75.22 -11.45 -115.03 -43.74 -112.97 -68.98 -68.85 -85.92 9.09 -90.85 110.56 -84.15 220.5 -62 324.75 -23.24 413.28 25.01 475.66 85.21 507.96 151.93 509.2 211.9 482.91 262.67 435.93 293.93 372.3 295.4 303.45 264.05 237.5 197.01 176.64 101.1 130.17 -16.5 100.8 -140.77 87.28 -249.7 92.1 -328.34 112.87 -360.07 147.65 -338.43 193.35 -265.44 246 -154.36 305.74 -33.75 367.04 71.75 427.04 133.32 488.53 130.22 545.84 60 597.88 -65.04 649.03 -213.65 694.41 -349.56 734.06 -434.63 772.72 -444.06 806.27 -373.49 835.01 -241.47 863.41 -90.07 887.62 36.64 907.66 96.92 927.7 68.73 943.08 -36.3 953.71 -182.71 966.46 -375.96 962.06 -329.86 943.13 -122.81 927.45 16.25 905.72 111.42 878.96 143.5 853.68 108.45 826.25 20.32 799.41 -95.26 779.66 -214.14 765.9 -305.38 762 -351.14 772.11 -345.24 797.12 -288.52 839.31 -194.16 897.35 -75.62 971.34 45.68 1058.45 153.02 1150.67 237.62 1244.53 289.15 1331.82 307.53 1402.47 294.59 1451.06 257.82 1470.69 206.76 1459.25 144.12 1416.28 83.06 1345.62 30.07 1259.25 -16.86 1165.64 -49.07 1078.86 -66.44 1015.6 -73.27 984.52 -67.25 993.77 -51.53 1044.88 -28.56 1131.97 -0.35 1243.25 29.95 1360.6 63.34 1465.77 95.58 1539.87 124.76 1569.4 154.62 1547.83 179.98 1477.42 200.02Q1477.42 200.02 1477.42 200.02" opacity="0.54"></path><path d="M1412.92 266.32C1320.6 284.13 1214.8 308.09 1111.18 338.09 1023.47 368.37 963.47 405.19 937.73 448.52 948.74 492.39 992.64 542.74 1061.5 598.76 1147.73 653.85 1237.39 712.37 1319.07 771.67 1429.88 871.18 1428.86 939.09 1327.15 940.01 1160.36 871.95 987.51 738.73 853.99 590.08 776.4 516.34 761.68 564.97 789.43 750.03 850.86 980.56 914.28 1133.96 962.27 1097.41 985.14 1010.57 1001.87 895.34 1012.39 775.35 1021.14 679.94 1024.12 628.81 1021.88 637.1 1018.48 706.02 1010.78 822.19 999.33 960.39 987.53 1087.27 972.64 1172.65 954.83 1193.42 937.02 1143.87 916.71 1037.18 893.81 901.43 870.57 768.53 844.08 670.24 813.89 627.08 782.55 646.81 746.57 721.54 705.51 831.29 662.68 953.92 614.31 1059.84 560.58 1128.04 450.85 1114.4 328.76 926.01 212.43 695.33 129.78 542.08 93.36 535.66 124.26 639.81 211.09 797.55 341.7 917.17 471.4 959.8 536.02 928.02 505.1 835.66 368.17 721.39 273.43 657.21 172.18 595.95 75.9 539.78 -3 483.88 -55.41 434.59 -73.29 392.19 -54.43 350.88 0.32 315.95 84.51 287.1 184.61 258.67 288.6 235.56 380.92 217.75 445.7 199.94 474.18 187.84 463.75 181.58 415.92 175.73 339.87 176.47 247.62 184.19 149.8 192.99 62.11 209.29 -4.34 232.87 -43.63 256.72 -49.66 286.35 -23.22 319.66 110.78 372.2 298.24 405.91 466.61 382.81 571.55 285.3 589.35 114.56 539.08 -89.87 440.18 -240.72 338.83 -276.57 263.57 -160.43 210.23 111.37 265.45 37.18 305.91 -154.24 336.71 -274.06 367.81 -357.31 397.8 -383.94 428.96 -347.68 457.74 -254.65 483.28 -125.29 509.08 6.93 531.1 111.84 548.91 161.42 566.72 140.69 579.9 57.14 588.79 -66.19 597.95 -200.88 603.35 -311.83 605.79 -373.9 609.38 -375.34 611.28 -315.72 612.8 -210.28 617.32 -80.23 623.61 46.59 633.51 146.5 670.09 209.19 735.89 87.75 840.57 -105.68 970.74 -253.66 1123.22 -260.06 1268.82 -139.64 1365.77 55.68 1390.21 240.05 1322.36 363.02 1191.09 417 1035.57 407.75 927.67 369.98 914.29 341.54 931.92 314.65 981.26 291.88 1057.77 268.18 1153.96 250.82 1258.65 240.54 1357.78 230.8 1439.07 228.17 1490.42 232.57 1504.38 237.27 1477.7 248.51 1412.92 266.32Q1412.92 266.32 1412.92 266.32" opacity="0.40"></path><path d="M1348.37 671.8C1176.87 702.97 999.51 737.97 888.65 769.82 882.22 793.46 972.4 798.75 1113 772.86 1258.29 726.15 1349.6 644.82 1364.09 542.55 1304.29 463.48 1188.34 424.06 1050.31 463.29 908.39 587.26 792.47 775.26 711.51 964.07 661.58 1067 641.02 1035.42 636.83 872.19 647.98 677.13 658.37 562.43 659 619.86 662.06 825.17 649.47 1048.96 618.3 1128.93 587.13 1003.03 538.86 767.13 477.01 589.39 417.6 579.78 350.51 730.02 285.35 928.5 235.51 1063.26 204.74 1052.78 206.63 916.72 239.55 716.21 310.73 541.45 411.79 445.65 508.97 440.42 587.96 506.22 615.31 599.03 568.36 703.11 449.1 776.08 280.96 810.02 117.52 819.22 9.59 799.37 3.99 765.6 102.82 723.73 273.87 683.63 445.37 652.46 534.75 621.28 507.83 600.52 386.07 583.61 217.99 558.61 79.38 521.75 19.66 458.55 52.14 370.61 165.5 246.31 318.11 94.19 475.65 -46.65 596.98 -157.22 665.99 -192.86 681.81 -137.93 654.73 -0.14 606.01 167.91 539.12 271.54 480.45 254.09 440.08 96.51 405.55 -124.8 392.57 -292.81 398.03 -295.27 407.28 -129.59 428.77 99.98 459.94 225.93 491.11 146.02 530.48 -71.43 580.02 -264.74 633.34 -310.19 703.02 -177.77 791.57 40.13 885.96 226.22 995.95 285.78 1110.88 215.31 1207.65 58.95 1279.48 -92.08 1304.51 -175.21 1276.35 -173.59 1191.98 -89.42 1066.9 37.67 946.74 187.98 861.34 320.65 851.7 421.37 934.27 501.28 1090.62 552.69 1270.73 587.84 1404.52 614.77 1437.75 640.63 1348.37 671.8Q1348.37 671.8 1348.37 671.8" opacity="0.67"></path><path d="M1283.92 387.57C1139.28 414.29 981.9 418.88 860.59 403.79 806.43 390.32 828.8 362.28 910.94 329.77 1031.91 314.43 1150.68 316.95 1238.33 355.46 1285.32 434.63 1278.92 558.18 1228.52 712.99 1143.21 858.16 1040.64 965.97 937.48 993.93 833.41 930.1 744.57 787.61 673.63 619.26 611.17 508.83 563.35 507.39 526.07 632.94 492.09 831.01 462.75 1007.86 436.03 1064.42 409.31 967.01 386.48 772.03 370.08 586.16 356.98 496.03 356.2 537.21 372.35 673.51 397 844.84 441.84 967.69 504.73 999.89 566.71 938.3 630.92 807.33 681.21 653.92 696.6 505.35 671.32 398.71 596.52 340.49 481.05 325.28 338.32 341.91 197.76 370.62 96.04 413.32 58.46 446.57 102.31 462.09 213.31 477.94 365.28 473.25 509.92 446.54 593.57 419.82 592.71 372.34 515.14 306.1 383.96 240.2 246.54 158.35 142.52 69.34 91.04 -5.66 107.52 -66.29 180.47 -92.25 294.71 -75.22 423.86 -6.93 544.71 106.61 650.2 225 725.15 324.29 770.55 358.08 790.9 298.08 792.59 151.27 786.24 -39.63 769.7 -195.51 757.27 -251.93 755.18 -172.14 751.56 3.38 762.01 192.96 788.73 290.41 815.45 233.9 857.16 62.48 911.17 -125.28 963.65 -240.55 1024.67 -223.94 1087.52 -93.93 1140.16 93.99 1182.48 260.45 1203.3 352.11 1199.08 351.98 1162.49 275.85 1092.02 165.7 1006.18 45.9 908.7 -39.28 822.28 -77.28 777.15 -74.62 784.64 -33.14 855.7 28.49 979.3 107.3 1131.93 183.94 1273.42 247.8 1361.3 313.27 1367.57 360.86 1283.92 387.57Q1283.92 387.57 1283.92 387.57" opacity="0.51"></path><path d="M1219.37 134.86C1101.2 157.12 968.34 185 850.69 220.65 769.12 259.97 737.32 313.37 754.43 384.45 815.52 463.17 901.22 559.87 992.11 667.92 1081.12 766.45 1147.75 852.3 1185.98 904.82 1199.57 909.92 1185.46 860.48 1151.22 758.7 1100.57 635.42 1041.83 513.41 982.93 434.02 919.43 432.57 862.56 515.44 815.99 665.96 769.08 833.93 733.66 963.21 711.4 999.93 689.13 928.11 681.07 777.72 686 609.27 690.58 478.06 706.94 426.31 731.86 459.47 752.18 563.03 774.26 694.45 790.6 812.19 790.51 895.84 772.66 920.77 729.89 891.21 662.49 816.57 569.46 715.89 457.27 610.16 343.19 501.19 237.52 408.82 160.12 336.93 126.69 275.24 145.81 230.59 218.79 197.77 327.85 168.96 456.2 144.78 574.37 122.51 649.84 100.25 667.91 80.96 629.74 67.78 543.52 58.61 434.32 62.76 326.99 85.86 234.71 119.17 179.12 174.87 165.13 249.53 189.43 320.95 247.45 389.66 326.21 435.12 420.6 435.5 515.62 384.18 602.27 277.36 684.4 136.44 751.91 -14.93 805.02 -134.82 851.24 -184.31 887.1 -145.26 915.87 -22.67 942.29 137.17 965.91 283.06 988.17 354.92 1010.44 318.25 1030.29 193.49 1045.87 34.11 1059.09 -107.82 1063.73 -178.05 1056.1 -160.3 1041.58 -64.6 1010.74 77.36 962.93 223.83 910.6 348.8 847.54 424.65 782.32 448.73 732.73 425.4 701.1 371.5 699.97 307.29 737.13 233.56 812.68 173.52 921.27 133.38 1044.92 100.88 1166.79 87.98 1261.61 90.65 1308.39 96.99 1294.86 112.58 1219.42 134.85Q1219.37 134.86 1219.37 134.86" opacity="0.82"></path><path d="M1155.28 554.81C1063.06 572.62 957.66 601.77 855.29 639.7 735.88 696.32 751.31 806.28 919.41 689.4 1027.79 530.41 1078.76 380.19 1079.89 378.38 1072.5 453.7 1058.71 569.85 1041.62 705.72 1022.98 829.61 1004.01 914.58 986.2 935.34 968.38 885.79 952.58 779.71 937.63 646.84 921.13 515.29 902.52 415.03 879.05 362.48 816.18 414.03 709.62 588.7 554.55 741.27 392.93 825.72 248.81 802.07 196.23 728.21 216.03 678.97 268.58 631.81 349.78 592.04 445.27 550.92 547.06 520.29 639.28 502.48 703.91 484.67 733.03 480.52 725.54 488.05 682.81 494.23 615.62 508.99 536.15 527.35 366.56 539.48 263.49 507.54 249.59 376.4 306.02 177.14 406.89 -35.3 506 -112.96 559.07 -73.47 605.46 16.64 643.01 141.32 680.64 267.32 708.96 369.79 726.78 419.34 744.59 398.58 751.04 317.22 746.99 200.21 743.04 71.2 729.05 -34.79 706.85 -97.06 669.47 -69.14 624.19 118.86 614.46 324.53 675.04 484.32 815.9 547.49 1011.6 556.14 1104.12 546.84 1181.45 538.23 1231.05 535.7 1245.42 531.36 1219.91 537 1155.28 554.81Q1155.28 554.81 1155.28 554.81" opacity="0.32"></path><path d="M1090.42 581.87C945.78 608.59 789.2 599.27 669.35 551.23 604.04 497.3 598.28 408.35 629.89 316.67 692.69 278.94 751.89 315.4 787.71 450.68 823.47 639.78 829.59 814.37 802.88 870.92 776.16 773.51 719.13 580.86 637.08 401.27 554.96 296.34 454.06 294.56 356.24 357.72 289.61 464.76 267.03 556.08 312.76 606.07 413.03 645.89 558.78 649.05 703.42 622.34 787.07 595.62 790.05 541.55 727.91 455.43 617.37 359.15 506.29 226.13 425.46 84.07 365.91 -14.09 347.69 -40.65 358.27 44.69 381.38 204.69 412.22 386.51 438.93 483.92 465.65 427.37 485.72 263.6 508.91 94.09 544.62 -21.6 604.54 -29.71 699.11 43.02 814.96 169.72 954.37 300.36 1084.5 400.6 1166.22 494.93 1174.07 555.16 1090.42 581.87Q1090.42 581.87 1090.42 581.87" opacity="0.14"></path><path d="M1025.87 147.34C827.38 182.96 636.13 188.96 537.11 267.68 504.91 442.21 502.36 699.87 466.74 806.43 431.12 649.56 369.17 387.07 354.68 237.52 407.01 196.71 569.38 213.54 767.87 177.92 860.37 142.29 821.23 60.96 735.94 55.09 621.37 157.95 568.81 391.56 604.44 548.43 640.06 441.87 757.12 213.09 918.37 85.24 1050.35 53.21 1118.37 111.71 1025.92 147.33Q1025.87 147.34 1025.87 147.34" opacity="0.34"></path></g></svg>